<?xml version="1.0" encoding="utf-8"?>
<!-- Generator: Adobe Illustrator 18.0.0, SVG Export Plug-In . SVG Version: 6.00 Build 0)  -->
<!DOCTYPE svg PUBLIC "-//W3C//DTD SVG 1.1//EN" "http://www.w3.org/Graphics/SVG/1.1/DTD/svg11.dtd">
<svg version="1.1" id="Layer_1" xmlns="http://www.w3.org/2000/svg" xmlns:xlink="http://www.w3.org/1999/xlink" x="0px" y="0px"
	 viewBox="0 0 256 256" enable-background="new 0 0 256 256" xml:space="preserve">
<g>
	<circle fill="#FFD678" cx="128" cy="128" r="127"/>
	<path fill="#BB9260" d="M107.1,183c0.3,1,0.7,2,1,2.9c1,2.9,1.9,5.9,2.9,8.9c0.3,1,0.7,2.1,1,3.1c0.8,2.7,1.7,5.4,2.5,8.1
		c0.2,0.5,0.3,1,0.5,1.6c1,3.2,1.9,6.4,2.8,9.5c0.2,0.8,0.5,1.7,0.7,2.5c0.9,3.3,1.9,6.5,2.8,9.8c2.3,8.4,4.5,16.8,6,25.3
		c0,0.1,0,0.2,0,0.3c0.2,0,0.5,0,0.7,0c5.3,0,10.6-0.3,15.8-1c0.1-1,0.2-2,0.4-3.1c0.1-0.4,0.1-0.9,0.2-1.3c0.3-2.5,0.6-4.9,0.9-7.3
		c0-0.2,0.1-0.5,0.1-0.7c0.3-2.6,0.7-5.1,1-7.7c0-0.1,0-0.3,0.1-0.4c0.4-2.6,0.8-5.3,1.1-7.9c0,0,0-0.1,0-0.1
		c2.8-18.8,6.1-37.6,9.8-56.3c0,0,0,0,0,0c-2.9,1.9-6.3,3.2-9.7,4c-5.7,1.3-11.6,1.4-17.4,1.3c-9-0.1-18.4-0.5-27.1-2.6
		c0.1,0.3,0.2,0.7,0.3,1c0.4,1.2,0.8,2.4,1.2,3.6C105.6,178.6,106.3,180.8,107.1,183z"/>
	<path fill="#61242A" d="M172.3,180.9c5.2,2.8,10.5,5.7,15.7,8.5c1,0.6,2.1,1.1,2.7,2.1c1.2,1.9,0.2,4.4-0.8,6.5
		c-7.9,16.3-14.7,33.2-20.9,50.2c27.1-9.2,50-27.3,65.4-50.8c-1.8-13.4-5-27.2-14.5-36.6c-8.9-8.8-21.5-11.8-33.4-16.3
		c4.3,10.1,7.6,20.7,9.7,31.5C188.1,177.3,180.2,178.9,172.3,180.9z"/>
	<path fill="#4C1619" d="M84.1,179.8c-4.2,4.3-8.3,8.6-12.5,12.9c-0.6,0.6-1.2,1.3-1.3,2.1c-0.1,0.7,0.2,1.4,0.5,2.1
		c2.3,5.1,4.9,10.1,7.7,15c5,8.5,10.7,16.5,15.9,24.9c3.2,5.1,6.1,10.4,8.8,15.8c7.8,1.5,15.8,2.4,24.1,2.4c0-0.1,0-0.2,0-0.3
		c-1.4-8.6-3.6-17-6-25.3c-0.9-3.3-1.9-6.6-2.8-9.8c-0.2-0.8-0.5-1.7-0.7-2.5c-0.9-3.2-1.9-6.4-2.8-9.5c-0.2-0.5-0.3-1-0.5-1.6
		c-0.8-2.7-1.7-5.4-2.5-8.1c-0.3-1-0.7-2.1-1-3.1c-0.9-3-1.9-5.9-2.9-8.9c-0.3-1-0.7-2-1-2.9c-0.7-2.2-1.5-4.4-2.2-6.6
		c-0.4-1.2-0.8-2.4-1.2-3.6c-3.6-10.5-7.4-20.8-11.4-31.2c-1.6,1.4-3.2,2.6-4.9,3.9c-6.5,4.7-13.6,8.5-20.9,12.1
		c-0.4,8.4-0.8,16.7-1.2,25.1C70.8,179.3,77.7,178.2,84.1,179.8z"/>
	<path fill="#61242A" d="M103.2,252.6c-2.7-5.4-5.6-10.7-8.8-15.8c-5.2-8.4-10.9-16.4-15.9-24.9c-2.8-4.9-5.4-9.9-7.7-15
		c-0.3-0.7-0.6-1.4-0.5-2.1c0.1-0.8,0.7-1.5,1.3-2.1c4.2-4.3,8.3-8.6,12.5-12.9c-6.3-1.6-13.3-0.5-18.9,2.9
		c0.4-8.4,0.8-16.7,1.2-25.1c-3.2,1.6-6.5,3.1-9.7,4.7c-7.6,3.7-15.4,7.5-21.3,13.7c-5.1,5.4-8.4,12.2-11.5,19
		c-0.6,1.3-1.1,2.5-1.5,3.6C40.8,226,69.6,245.9,103.2,252.6z"/>
	<path fill="#4C1619" d="M147.6,225.6c-0.4,2.6-0.8,5.3-1.1,7.9c0,0.1,0,0.3-0.1,0.4c-0.4,2.6-0.7,5.1-1,7.7c0,0.2-0.1,0.5-0.1,0.7
		c-0.3,2.4-0.6,4.9-0.9,7.3c-0.1,0.4-0.1,0.9-0.2,1.3c-0.1,1-0.2,2-0.4,3.1c8.7-1.1,17.2-3,25.2-5.8c6.2-17.1,13-33.9,20.9-50.2
		c1-2.1,2-4.6,0.8-6.5c-0.6-1-1.7-1.6-2.7-2.1c-5.2-2.8-10.5-5.7-15.7-8.5c7.9-2,15.8-3.6,23.9-4.8c-2.1-10.8-5.3-21.4-9.7-31.5
		c-3.8-1.4-7.5-3-11.1-5c-4.4-2.5-8.4-5.6-11.5-9.5c-1.2,12.6-4.3,28.5-6.3,38c-0.1,0.4-0.2,0.8-0.2,1.2c-3.8,18.7-7,37.4-9.8,56.3
		C147.6,225.5,147.6,225.5,147.6,225.6z"/>
	<path fill="#995F37" d="M130.4,174.5c-9-0.1-18.4-0.5-27.1-2.6c-3.5-10.1-7.2-20.2-11.1-30.2c7.3-6.2,13.5-13.8,16.9-22.7
		c1.4-3.8,2.4-7.9,5.4-10.7c3.9-3.7,9.9-3.7,15.3-3.2c10.1,1,21.2,3.7,27,12c2.3,3.2,3.5,7,5.6,10.4c0.5,0.9,1.1,1.7,1.7,2.5
		c-1.2,12.6-4.3,28.5-6.3,38c-0.1,0.4-0.2,0.8-0.2,1.1c-2.9,1.9-6.3,3.2-9.7,4C142.1,174.5,136.2,174.5,130.4,174.5z"/>
	<path fill="#180F0F" d="M190.6,161.2c-2.2,4.9-6.9,8.6-8.5,13.8c-3.8,12.2,11,23.6,9.3,36.3c-3.3-7.2-9.3-12.8-13.2-19.7
		c-3.9-6.9-5.3-16.5,0.3-22.1c-9,6.4-12.8,19.1-8.9,29.3c-4.1-4.9-5.6-11.7-4.1-17.9c0.8-3,2.2-5.9,2.4-9.1
		c0.3-7.4-6.7-12.9-9.8-19.7c-4.2-9.4-0.3-20.2,2.7-30.1c3.5-11.8,5.6-24.1,6.1-36.5c0.4-8.4-0.1-17.3-4.4-24.6
		c-3.7-6.4-10-10.8-15.5-15.7c-5.6-4.9-10.9-11-11.5-18.3c12.8-0.6,25.7,3.1,36.2,10.4c3.4,2.4,6.6,5.2,8.8,8.7
		c2.4,3.7,3.5,8.1,4.5,12.4c4.3,18,7.2,38-1.6,54.4c-1.6,3.1-3.7,6.1-3.8,9.6c-0.1,3.8,2.1,7.2,4.2,10.3
		C189.5,141.3,194.7,151.9,190.6,161.2z"/>
	<path fill="#B67B53" d="M147,137.2c-6.7-2.7-13.2-5.7-19.7-8.9c-2.9-1.4-5.9-3-8.1-5.3c-2-2.1-3.3-4.7-4.4-7.4
		c-3.2-8.3-3.9-17.3-3.4-26.2c0.2-4.8,0.8-9.6,2.6-14c2-4.8,5.4-8.8,8.7-12.8c4-4.7,8-9.4,12.8-13.2c4-3.2,8.4-5.8,13.1-7.6
		c2.8-1.1,5.9-2,8.8-1.1c0.8,0.2,1.5,0.6,2.3,0.9c2.2,1.1,4.5,2.1,6.7,3.2c2.5,1.2,5.1,2.4,6.9,4.5c1.7,2,2.6,4.6,3.4,7.1
		c2.4,7.5,4.4,15.4,3.3,23.2c-0.8,5.3-2.9,10.3-3.2,15.6c-0.1,3.3,0.5,6.6,0,9.8c-0.5,3.6-2.2,6.8-3.9,10c-2.4,4.5-4.7,8.9-7.1,13.4
		c-2.5,4.7-5.8,10-11.1,10.7C152.2,139.3,149.5,138.3,147,137.2z"/>
	<path fill="#180F0F" d="M76.1,221.3c-0.2-1.8-1.7-3.1-3-4.4c-7.4-7.6-9.3-19.9-4.6-29.4c2.6-5.2,7-10.4,5.4-15.9
		c0.6,5.4-4.6,9.4-9.1,12.4c-4.5,3-9.5,7.4-8.5,12.7c-1.4-5.7,0.3-12.1,4.4-16.2c1.2-1.3,2.7-2.4,3.6-4c2.4-4.6-1.5-9.9-1.8-15
		c-0.2-3.5,1.3-7.1,4.1-9.3c-3.3,2.4-6.5,4.9-9.8,7.3c-2.3,1.7-4.6,3.5-5.9,6c-2.1,4-1.1,8.8-1.5,13.3c-0.4,4.5-3.5,9.7-8,9
		c7.5-7.6-1.5-22.7,5.9-30.4c4.2-4.4,11.9-4.2,15.3-9.2c3.5-5.1,0.2-11.8-0.7-17.8c-1-6.5,1-13.5,5.3-18.5c3.6-4.2,8.6-7,11.9-11.3
		c5.3-7,5.1-16.6,6.1-25.3c1-9.2,3.6-18.1,7.5-26.5c5.2-11,13.7-21.5,25.6-23.9c4.9-1,9.9-0.5,14.8,0.4c10.3,1.9,20.3,5.5,29.3,10.8
		c1,0.6,2.1,1.3,2.4,2.5c0.2,0.9-0.1,1.8-0.4,2.7c-1.9,5-3.8,10-5.6,15c-3,8.1-6.5,16.6-13.6,21.5c-6,4.2-14.6,5.6-18,12
		c-5.2,9.9,6.3,21.7,3.7,32.6c-2.3,9.6-15,15.7-13.4,25.5c0.6,3.8,3.4,6.8,5.8,9.8c3,3.8,5.7,7.9,6.9,12.6c1.2,4.7,0.8,9.9-2,13.9
		c-2.9,4.2-8,6.4-12.9,7.6c-4.8,1.2-10.7,2.5-12.3,7.2c-1.8,5.3,3.4,10.7,2.7,16.3c-0.8,5.4-6.6,8.2-11.5,10.4
		c-5,2.2-10.6,5.6-10.5,11.1c-0.6-4.3,1.4-8.8,4.8-11.4c2.5-1.8,6-3.2,6.4-6.3c0.6-4.4-5.6-6.3-7.8-10.2c-2.3-4.1,0.5-9.1,3.5-12.6
		c3-3.5,6.7-7.3,6.5-11.9c-2.8,7.1-12.7,8.1-17.7,13.9c-3.6,4.3-3.9,10.7-2.1,16c0.6,1.8,1.5,3.7,1.4,5.6c-0.3,5.2-6.7,7.3-11.9,7.6
		c2.1,0,4.2,0,6.1-0.9C74.8,225.2,76.4,223.3,76.1,221.3z"/>
	<path fill="none" d="M114.4,206c-0.8-2.7-1.7-5.4-2.5-8.1C112.8,200.6,113.6,203.3,114.4,206z"/>
	<path fill="none" d="M121.3,229.4c-0.9-3.3-1.9-6.6-2.8-9.8C119.4,222.8,120.4,226.1,121.3,229.4z"/>
	<path fill="none" d="M110.9,194.8c-0.9-3-1.9-5.9-2.9-8.9C109,188.9,110,191.8,110.9,194.8z"/>
	<path fill="none" d="M117.8,217.1c-0.9-3.2-1.9-6.4-2.8-9.5C115.9,210.7,116.8,213.9,117.8,217.1z"/>
	<path fill="none" d="M107.1,183c-0.7-2.2-1.5-4.4-2.2-6.6C105.6,178.6,106.3,180.8,107.1,183z"/>
	<path fill="none" d="M147.6,225.6c0,0,0-0.1,0-0.1C147.6,225.5,147.6,225.5,147.6,225.6z"/>
	<path fill="none" d="M144.2,251c0.1-0.4,0.1-0.9,0.2-1.3C144.3,250.1,144.2,250.5,144.2,251z"/>
	<path fill="none" d="M146.4,233.9c0-0.1,0-0.3,0.1-0.4C146.4,233.7,146.4,233.8,146.4,233.9z"/>
	<path fill="none" d="M145.3,242.3c0-0.2,0.1-0.5,0.1-0.7C145.3,241.8,145.3,242.1,145.3,242.3z"/>
	<path fill="#4C1619" d="M103.6,172.8c0.4,1.2,0.8,2.4,1.2,3.6C104.4,175.2,104,174,103.6,172.8z"/>
	<path fill="#4C1619" d="M118.5,219.6c-0.2-0.8-0.5-1.7-0.7-2.5C118,217.9,118.2,218.7,118.5,219.6z"/>
	<path fill="#4C1619" d="M114.9,207.5c-0.2-0.5-0.3-1-0.5-1.6C114.6,206.5,114.8,207,114.9,207.5z"/>
	<path fill="#4C1619" d="M111.9,197.9c-0.3-1-0.7-2.1-1-3.1C111.3,195.8,111.6,196.9,111.9,197.9z"/>
	<path fill="#4C1619" d="M108,185.9c-0.3-1-0.7-2-1-2.9C107.4,184,107.7,184.9,108,185.9z"/>
	<path fill="#4C1619" d="M143.8,254C143.8,254,143.8,254,143.8,254c0.1-1,0.2-2,0.4-3.1C144,252,143.9,253,143.8,254z"/>
	<path fill="#4C1619" d="M144.3,249.7c0.3-2.5,0.6-4.9,0.9-7.3C144.9,244.8,144.6,247.2,144.3,249.7z"/>
	<path fill="#4C1619" d="M146.5,233.5c0.4-2.6,0.8-5.3,1.1-7.9C147.2,228.2,146.8,230.9,146.5,233.5z"/>
	<path fill="#4C1619" d="M157.4,169.2c-3.8,18.7-7,37.4-9.8,56.3C150.4,206.6,153.7,187.8,157.4,169.2z"/>
	<path fill="#4C1619" d="M145.4,241.6c0.3-2.6,0.7-5.1,1-7.7C146,236.5,145.7,239,145.4,241.6z"/>
</g>
</svg>
