<?xml version="1.0" standalone="no"?>
<!DOCTYPE svg PUBLIC "-//W3C//DTD SVG 20010904//EN"
 "http://www.w3.org/TR/2001/REC-SVG-20010904/DTD/svg10.dtd">
<svg version="1.0" xmlns="http://www.w3.org/2000/svg"
 width="500.000000pt" height="500.000000pt" viewBox="0 0 500.000000 500.000000"
 preserveAspectRatio="xMidYMid meet">
<metadata>
Created by potrace 1.11, written by Peter Selinger 2001-2013
</metadata>
<g transform="translate(0.000000,500.000000) scale(0.100000,-0.100000)"
fill="#000000" stroke="none">
<path d="M2295 4990 c-763 -63 -1455 -474 -1879 -1115 -209 -315 -333 -644
-393 -1042 -23 -153 -22 -508 1 -668 79 -551 321 -1039 706 -1425 591 -593
1409 -847 2235 -695 1003 185 1804 988 1991 1994 187 1012 -255 2022 -1128
2577 -445 282 -1000 418 -1533 374z m1863 -1482 c3 -13 -1164 -1521 -1246
-1611 l-26 -27 -1025 2 -1026 3 0 24 c0 21 73 59 753 392 414 202 759 366 766
363 7 -3 73 -68 145 -145 122 -128 159 -156 175 -130 3 4 -6 99 -21 210 -16
120 -22 205 -17 211 21 21 1481 729 1499 727 11 -1 21 -9 23 -19z"/>
</g>
</svg>
