<?xml version="1.0" standalone="no"?>
<!DOCTYPE svg PUBLIC "-//W3C//DTD SVG 20010904//EN"
 "http://www.w3.org/TR/2001/REC-SVG-20010904/DTD/svg10.dtd">
<svg version="1.0" xmlns="http://www.w3.org/2000/svg"
 width="500.000000pt" height="500.000000pt" viewBox="0 0 500.000000 500.000000"
 preserveAspectRatio="xMidYMid meet">
<metadata>
Created by potrace 1.11, written by Peter Selinger 2001-2013
</metadata>
<g transform="translate(0.000000,500.000000) scale(0.100000,-0.100000)"
fill="#000000" stroke="none">
<path d="M115 4991 c-40 -12 -74 -43 -94 -84 -20 -41 -20 -59 -20 -1159 l0
-1117 23 -42 c15 -29 36 -50 66 -66 l43 -23 2364 0 c2567 0 2406 -3 2456 53
48 54 47 14 46 1198 0 1183 1 1147 -46 1198 -49 53 99 50 -2454 49 -1300 0
-2373 -3 -2384 -7z"/>
<path d="M425 2324 c-10 -4 -12 -485 -2 -537 9 -42 43 -83 90 -106 42 -20 45
-20 1986 -20 1871 -1 1946 0 1986 18 47 21 78 59 92 111 6 26 10 488 4 532 -1
6 -4138 9 -4156 2z"/>
<path d="M848 1492 c-13 -2 -15 -39 -13 -270 1 -283 3 -300 52 -344 52 -47 -9
-45 1623 -44 1401 1 1538 3 1565 18 86 46 92 73 91 383 l-1 260 -1651 0 c-908
0 -1657 -1 -1666 -3z"/>
<path d="M1252 387 l3 -274 28 -41 c53 -76 -27 -71 1219 -71 1105 -1 1113 0
1155 20 29 14 52 35 68 63 25 43 25 43 25 309 l0 267 -1250 0 -1251 0 3 -273z"/>
</g>
</svg>
